<?xml version="1.0" encoding="UTF-8" standalone="no"?>
<!-- Created with Inkscape (http://www.inkscape.org/) -->

<svg
   xmlns:dc="http://purl.org/dc/elements/1.1/"
   xmlns:cc="http://creativecommons.org/ns#"
   xmlns:rdf="http://www.w3.org/1999/02/22-rdf-syntax-ns#"
   xmlns:svg="http://www.w3.org/2000/svg"
   xmlns="http://www.w3.org/2000/svg"
   xmlns:inkscape="http://www.inkscape.org/namespaces/inkscape"
   version="1.1"
   width="76.857147"
   height="26.023092"
   id="svg2">
  <defs
     id="defs4" />
  <metadata
     id="metadata7">
    <rdf:RDF>
      <cc:Work
         rdf:about="">
        <dc:format>image/svg+xml</dc:format>
        <dc:type
           rdf:resource="http://purl.org/dc/dcmitype/StillImage" />
        <dc:title />
      </cc:Work>
    </rdf:RDF>
  </metadata>
  <g
     transform="translate(-735.65642,-148.51158)"
     id="layer1">
    <g
       transform="translate(-1.24889,4.7770874)"
       id="say">
      <path
         d="m 741.33388,144.32899 7,0 3.25,3.10714 c 2.16667,0 8.33333,0 10.5,0 l 3.25,-3.10714 c 0,0 20.66667,0 44.00001,0 2.17643,0 3.92857,1.75214 3.92857,3.92857 l 0,13.96431 c 0,2.17643 -1.75214,3.92857 -3.92857,3.92857 -23.33334,0 -44.00001,0 -44.00001,0 l -3.25,3.10714 c -2.16667,0 -8.33333,0 -10.5,0 l -3.25,-3.10714 -7,0 c -2.17643,0 -3.92857,-1.75214 -3.92857,-3.92857 l 0,-13.96431 c 0,-2.17643 1.83588,-4.52648 3.92857,-3.92857 z"
         inkscape:connector-curvature="0"
         id="path9846"
         style="fill:#8c55e6;fill-opacity:1;stroke:#633d9c;stroke-width:1;stroke-linecap:round;stroke-linejoin:round;stroke-miterlimit:4;stroke-opacity:1;stroke-dashoffset:0" />
      <text
         x="740.97675"
         y="159.57526"
         id="text9848"
         xml:space="preserve"
         style="font-size:14px;font-style:normal;font-variant:normal;font-weight:500;font-stretch:normal;text-align:start;line-height:125%;letter-spacing:0px;word-spacing:0px;writing-mode:lr-tb;text-anchor:start;fill:#ffffff;fill-opacity:1;stroke:none;font-family:Ubuntu;-inkscape-font-specification:Ubuntu Medium"><tspan
           x="740.97675"
           y="159.57526"
           id="tspan9850">say</tspan></text>
      <path
         d="m 771.22727,147.17192 31,0 c 2.3545,0 4.25,3.345 4.25,7.5 l 0,1.5 c 0,4.155 -1.8955,7.5 -4.25,7.5 l -31,0 c -2.3545,0 -4.25,-3.345 -4.25,-7.5 l 0,-1.5 c 0,-4.155 1.8955,-7.5 4.25,-7.5 z"
         inkscape:connector-curvature="0"
         id="path9852"
         style="fill:#ffffff;fill-opacity:1;stroke:#5f5f5f;stroke-linejoin:round;stroke-opacity:1" />
      <text
         x="773.69855"
         y="159.58594"
         id="text9854"
         xml:space="preserve"
         style="font-size:12px;font-style:normal;font-variant:normal;font-weight:normal;font-stretch:normal;text-align:start;line-height:125%;letter-spacing:0px;word-spacing:0px;writing-mode:lr-tb;text-anchor:start;fill:#000000;fill-opacity:1;stroke:none;font-family:Ubuntu;-inkscape-font-specification:Ubuntu"><tspan
           x="773.69855"
           y="159.58594"
           id="tspan9856">hello</tspan></text>
    </g>
  </g>
</svg>
