<?xml version="1.0" encoding="UTF-8" standalone="no"?>
<!-- Created with Inkscape (http://www.inkscape.org/) -->

<svg
   xmlns:dc="http://purl.org/dc/elements/1.1/"
   xmlns:cc="http://creativecommons.org/ns#"
   xmlns:rdf="http://www.w3.org/1999/02/22-rdf-syntax-ns#"
   xmlns:svg="http://www.w3.org/2000/svg"
   xmlns="http://www.w3.org/2000/svg"
   xmlns:inkscape="http://www.inkscape.org/namespaces/inkscape"
   version="1.1"
   width="212.85718"
   height="26.023083"
   id="svg2">
  <defs
     id="defs4" />
  <metadata
     id="metadata7">
    <rdf:RDF>
      <cc:Work
         rdf:about="">
        <dc:format>image/svg+xml</dc:format>
        <dc:type
           rdf:resource="http://purl.org/dc/dcmitype/StillImage" />
        <dc:title />
      </cc:Work>
    </rdf:RDF>
  </metadata>
  <g
     transform="translate(-735.65642,-12.835865)"
     id="layer1">
    <g
       transform="translate(-10,-12.000133)"
       id="switch-to-costume">
      <path
         d="m 750.08499,25.4305 7,0 3.25,3.10714 c 2.16667,0 8.33333,0 10.5,0 l 3.25,-3.10714 c 0,0 156.66667,0 180,0 2.17643,0 3.92861,1.75214 3.92861,3.92857 l 0,13.9643 c 0,2.17643 -1.75218,3.92857 -3.92861,3.92857 -23.33333,0 -180,0 -180,0 l -3.25,3.10714 c -2.16667,0 -8.33333,0 -10.5,0 l -3.25,-3.10714 -7,0 c -2.17643,0 -3.92857,-1.75214 -3.92857,-3.92857 l 0,-13.9643 c 0,-2.17643 1.83588,-4.52648 3.92857,-3.92857 z"
         inkscape:connector-curvature="0"
         id="path9741"
         style="fill:#8c55e6;fill-opacity:1;stroke:#633d9c;stroke-width:1;stroke-linecap:round;stroke-linejoin:round;stroke-miterlimit:4;stroke-opacity:1;stroke-dashoffset:0" />
      <text
         x="749.72784"
         y="40.430515"
         id="text9743"
         xml:space="preserve"
         style="font-size:14px;font-style:normal;font-variant:normal;font-weight:500;font-stretch:normal;text-align:start;line-height:125%;letter-spacing:0px;word-spacing:0px;writing-mode:lr-tb;text-anchor:start;fill:#ffffff;fill-opacity:1;stroke:none;font-family:Ubuntu;-inkscape-font-specification:Ubuntu Medium"><tspan
           x="749.72784"
           y="40.430515"
           id="tspan9745">switch to costume</tspan></text>
      <path
         d="m 876.22358,29.401 74.96322,0 0,13.86929 -74.96322,0 z"
         inkscape:connector-curvature="0"
         id="path9747"
         style="fill:#8c5dc5;fill-opacity:1;stroke:#633da5;stroke-width:1;stroke-linecap:round;stroke-linejoin:round;stroke-miterlimit:4;stroke-opacity:1;stroke-dashoffset:0" />
      <path
         d="m 941.88864,40.59317 -4.54663,-7.875 9.09326,0 z"
         inkscape:connector-curvature="0"
         id="path9749"
         style="fill:#424142;fill-opacity:1;stroke:none" />
      <text
         x="880.46924"
         y="40.511646"
         id="text9756"
         xml:space="preserve"
         style="font-size:12px;font-style:normal;font-variant:normal;font-weight:normal;font-stretch:normal;text-align:start;line-height:125%;letter-spacing:0px;word-spacing:0px;writing-mode:lr-tb;text-anchor:start;fill:#ffffff;fill-opacity:1;stroke:none;font-family:Ubuntu;-inkscape-font-specification:Ubuntu"><tspan
           x="880.46924"
           y="40.511646"
           id="tspan9758">costume2</tspan></text>
    </g>
  </g>
</svg>
