<?xml version="1.0" encoding="UTF-8" standalone="no"?>
<!-- Created with Inkscape (http://www.inkscape.org/) -->

<svg
   xmlns:dc="http://purl.org/dc/elements/1.1/"
   xmlns:cc="http://creativecommons.org/ns#"
   xmlns:rdf="http://www.w3.org/1999/02/22-rdf-syntax-ns#"
   xmlns:svg="http://www.w3.org/2000/svg"
   xmlns="http://www.w3.org/2000/svg"
   xmlns:inkscape="http://www.inkscape.org/namespaces/inkscape"
   version="1.1"
   width="156.85715"
   height="26.023079"
   id="svg2">
  <defs
     id="defs4" />
  <metadata
     id="metadata7">
    <rdf:RDF>
      <cc:Work
         rdf:about="">
        <dc:format>image/svg+xml</dc:format>
        <dc:type
           rdf:resource="http://purl.org/dc/dcmitype/StillImage" />
        <dc:title />
      </cc:Work>
    </rdf:RDF>
  </metadata>
  <g
     transform="translate(-735.65642,-1000.6083)"
     id="layer1">
    <g
       transform="translate(-1.00625,34.808642)"
       id="change-tempo-by">
      <path
         d="m 741.09124,966.39414 7,0 3.25,3.10713 c 2.16667,0 8.33333,0 10.5,0 l 3.25,-3.10713 c 0,0 100.66667,0 124.00001,0 2.17643,0 3.92857,1.75215 3.92857,3.92858 l 0,13.96429 c 0,2.17643 -1.75214,3.92858 -3.92857,3.92858 -23.33334,0 -124.00001,0 -124.00001,0 l -3.25,3.10713 c -2.16667,0 -8.33333,0 -10.5,0 l -3.25,-3.10713 -7,0 c -2.17643,0 -3.92857,-1.75215 -3.92857,-3.92858 l 0,-13.96429 c 0,-2.17643 1.83588,-4.52648 3.92857,-3.92858 z"
         inkscape:connector-curvature="0"
         id="path10673"
         style="fill:#ce49de;fill-opacity:1;stroke:#94319c;stroke-width:1;stroke-linecap:round;stroke-linejoin:round;stroke-miterlimit:4;stroke-opacity:1;stroke-dashoffset:0" />
      <text
         x="740.73407"
         y="981.64044"
         id="text10675"
         xml:space="preserve"
         style="font-size:14px;font-style:normal;font-variant:normal;font-weight:500;font-stretch:normal;text-align:start;line-height:125%;letter-spacing:0px;word-spacing:0px;writing-mode:lr-tb;text-anchor:start;fill:#ffffff;fill-opacity:1;stroke:none;font-family:Ubuntu;-inkscape-font-specification:Ubuntu Medium"><tspan
           x="740.73407"
           y="981.64044"
           id="tspan10677">change tempo by</tspan></text>
      <path
         d="m 860.98463,969.23707 21,0 c 2.3545,0 4.25,3.345 4.25,7.5 l 0,1.5 c 0,4.15499 -1.8955,7.5 -4.25,7.5 l -21,0 c -2.3545,0 -4.25,-3.34501 -4.25,-7.5 l 0,-1.5 c 0,-4.155 1.8955,-7.5 4.25,-7.5 z"
         inkscape:connector-curvature="0"
         id="path10679"
         style="fill:#ffffff;fill-opacity:1;stroke:#5f5f5f;stroke-linejoin:round;stroke-opacity:1" />
      <text
         x="864.67792"
         y="981.65112"
         id="text10681"
         xml:space="preserve"
         style="font-size:12px;font-style:normal;font-variant:normal;font-weight:normal;font-stretch:normal;text-align:start;line-height:125%;letter-spacing:0px;word-spacing:0px;writing-mode:lr-tb;text-anchor:start;fill:#000000;fill-opacity:1;stroke:none;font-family:Ubuntu;-inkscape-font-specification:Ubuntu"><tspan
           x="864.67792"
           y="981.65112"
           id="tspan10683">20</tspan></text>
    </g>
  </g>
</svg>
