<?xml version="1.0" encoding="UTF-8" standalone="no"?>
<!-- Created with Inkscape (http://www.inkscape.org/) -->

<svg
   xmlns:dc="http://purl.org/dc/elements/1.1/"
   xmlns:cc="http://creativecommons.org/ns#"
   xmlns:rdf="http://www.w3.org/1999/02/22-rdf-syntax-ns#"
   xmlns:svg="http://www.w3.org/2000/svg"
   xmlns="http://www.w3.org/2000/svg"
   xmlns:inkscape="http://www.inkscape.org/namespaces/inkscape"
   version="1.1"
   width="164.85715"
   height="26.023096"
   id="svg2">
  <defs
     id="defs4" />
  <metadata
     id="metadata7">
    <rdf:RDF>
      <cc:Work
         rdf:about="">
        <dc:format>image/svg+xml</dc:format>
        <dc:type
           rdf:resource="http://purl.org/dc/dcmitype/StillImage" />
        <dc:title />
      </cc:Work>
    </rdf:RDF>
  </metadata>
  <g
     transform="translate(-735.65642,-1036.658)"
     id="layer1">
    <g
       transform="translate(0.61507,25.458876)"
       id="set-tempo-to-bpm">
      <path
         d="m 739.46992,1011.7936 7,0 3.25,3.1072 c 2.16667,0 8.33333,0 10.5,0 l 3.25,-3.1072 c 0,0 108.66667,0 132.00001,0 2.17643,0 3.92857,1.7522 3.92857,3.9286 l 0,13.9643 c 0,2.1764 -1.75214,3.9286 -3.92857,3.9286 -23.33334,0 -132.00001,0 -132.00001,0 l -3.25,3.1071 c -2.16667,0 -8.33333,0 -10.5,0 l -3.25,-3.1071 -7,0 c -2.17643,0 -3.92857,-1.7522 -3.92857,-3.9286 l 0,-13.9643 c 0,-2.1764 1.83588,-4.5265 3.92857,-3.9286 z"
         inkscape:connector-curvature="0"
         id="path10701"
         style="fill:#ce49de;fill-opacity:1;stroke:#94319c;stroke-width:1;stroke-linecap:round;stroke-linejoin:round;stroke-miterlimit:4;stroke-opacity:1;stroke-dashoffset:0" />
      <text
         x="739.11273"
         y="1027.0399"
         id="text10703"
         xml:space="preserve"
         style="font-size:14px;font-style:normal;font-variant:normal;font-weight:500;font-stretch:normal;text-align:start;line-height:125%;letter-spacing:0px;word-spacing:0px;writing-mode:lr-tb;text-anchor:start;fill:#ffffff;fill-opacity:1;stroke:none;font-family:Ubuntu;-inkscape-font-specification:Ubuntu Medium"><tspan
           x="739.11273"
           y="1027.0399"
           id="tspan10705">set tempo to             bpm</tspan></text>
      <path
         d="m 831.36331,1014.6366 25,0 c 2.3545,0 4.25,3.345 4.25,7.5 l 0,1.5 c 0,4.155 -1.8955,7.5 -4.25,7.5 l -25,0 c -2.3545,0 -4.25,-3.345 -4.25,-7.5 l 0,-1.5 c 0,-4.155 1.8955,-7.5 4.25,-7.5 z"
         inkscape:connector-curvature="0"
         id="path10707"
         style="fill:#ffffff;fill-opacity:1;stroke:#5f5f5f;stroke-linejoin:round;stroke-opacity:1" />
      <text
         x="837.01459"
         y="1027.0507"
         id="text10709"
         xml:space="preserve"
         style="font-size:12px;font-style:normal;font-variant:normal;font-weight:normal;font-stretch:normal;text-align:start;line-height:125%;letter-spacing:0px;word-spacing:0px;writing-mode:lr-tb;text-anchor:start;fill:#000000;fill-opacity:1;stroke:none;font-family:Ubuntu;-inkscape-font-specification:Ubuntu"><tspan
           x="837.01459"
           y="1027.0507"
           id="tspan10711">60</tspan></text>
    </g>
  </g>
</svg>
