<?xml version="1.0" encoding="UTF-8" standalone="no"?>
<!-- Created with Inkscape (http://www.inkscape.org/) -->

<svg
   xmlns:dc="http://purl.org/dc/elements/1.1/"
   xmlns:cc="http://creativecommons.org/ns#"
   xmlns:rdf="http://www.w3.org/1999/02/22-rdf-syntax-ns#"
   xmlns:svg="http://www.w3.org/2000/svg"
   xmlns="http://www.w3.org/2000/svg"
   xmlns:sodipodi="http://sodipodi.sourceforge.net/DTD/sodipodi-0.dtd"
   xmlns:inkscape="http://www.inkscape.org/namespaces/inkscape"
   width="224.196"
   height="237.26978"
   id="svg2"
   version="1.1"
   inkscape:version="0.48.4 r9939"
   sodipodi:docname="pimoroni_pirate.svg">
  <defs
     id="defs4" />
  <sodipodi:namedview
     id="base"
     pagecolor="#ffffff"
     bordercolor="#666666"
     borderopacity="1.0"
     inkscape:pageopacity="0.0"
     inkscape:pageshadow="2"
     inkscape:zoom="1.979899"
     inkscape:cx="97.168893"
     inkscape:cy="109.39823"
     inkscape:document-units="px"
     inkscape:current-layer="layer1"
     showgrid="false"
     fit-margin-top="0"
     fit-margin-left="0"
     fit-margin-right="0"
     fit-margin-bottom="0"
     inkscape:window-width="1920"
     inkscape:window-height="1056"
     inkscape:window-x="0"
     inkscape:window-y="24"
     inkscape:window-maximized="1" />
  <metadata
     id="metadata7">
    <rdf:RDF>
      <cc:Work
         rdf:about="">
        <dc:format>image/svg+xml</dc:format>
        <dc:type
           rdf:resource="http://purl.org/dc/dcmitype/StillImage" />
        <dc:title />
      </cc:Work>
    </rdf:RDF>
  </metadata>
  <g
     inkscape:label="Layer 1"
     inkscape:groupmode="layer"
     id="layer1"
     transform="translate(-371.64134,-84.614323)">
    <path
       style="fill:#000000"
       d="m 485.21404,320.51511 c 0.2647,-1.96514 -0.1899,-5.12365 -1.5756,-10.94718 -0.6048,-2.54217 -1.2824,-5.79515 -1.5056,-7.22884 l -0.4059,-2.6067 -2.7095,2.09567 c -9.4493,7.30859 -20.6485,12.742 -34.4007,16.68987 -1.8553,0.5326 -3.6347,1.04483 -3.9542,1.13829 -0.5392,0.15769 -0.5476,0.10494 -0.1167,-0.73553 0.97,-1.89185 2.432,-7.14342 2.9209,-10.4918 0.3344,-2.2901 0.4775,-5.08884 0.4177,-8.17128 l -0.091,-4.68818 -2.6379,1.71647 c -9.67956,6.29832 -22.21933,10.64762 -32.37408,11.22863 l -3.47208,0.19866 2.39605,-3.21953 c 7.68248,-10.32279 13.85472,-24.38668 12.37659,-28.20094 -0.2158,-0.55688 -0.57576,-0.87661 -0.98687,-0.87661 -0.35591,0 -2.69046,1.06237 -5.18785,2.36082 -9.27862,4.82416 -19.18598,7.9138 -27.81074,8.6729 l -2.55014,0.22444 2.5226,-2.68048 c 7.78698,-8.27436 13.43943,-17.32098 16.4134,-26.26928 3.9714,-11.94944 4.0333,-24.04705 0.19866,-38.82644 -1.94815,-7.50862 -1.60901,-6.85725 -4.4834,-8.61115 -17.47423,-10.66249 -27.34589,-28.91469 -26.50686,-49.00995 0.43591,-10.44081 3.95256,-20.71083 10.03365,-29.30241 2.7429,-3.87522 8.62926,-9.7616 12.50449,-12.50448 6.18724,-4.37932 13.33956,-7.46954 21.01621,-9.08021 3.47587,-0.72929 4.80456,-0.84338 10.08641,-0.86609 l 6.08317,-0.0261 1.56725,-2.32772 c 7.53514,-11.191418 20.01824,-19.566488 33.35774,-22.380038 13.0225,-2.74668 26.8251,-0.63251 38.1334,5.84097 9.7765,5.59661 17.242,13.600208 22.1425,23.738508 l 1.6512,3.41622 2.7096,-0.54759 c 11.6468,-2.3538 23.9884,-0.78957 34.5959,4.38486 15.3605,7.49295 26.1227,21.51033 29.5419,38.4774 0.6147,3.0502 0.7231,4.59099 0.7231,10.28197 0,7.40449 -0.5045,10.94651 -2.3953,16.81671 -1.3031,4.04581 -4.9609,11.25441 -7.5557,14.89059 -2.6913,3.77128 -7.9884,9.13654 -11.5942,11.74341 l -2.746,1.98536 -0.2222,3.4209 c -2.3151,35.6488 -21.0109,62.39596 -60.8787,87.09634 -7.1093,4.40463 -19.4729,11.57962 -24.6881,14.32733 -0.751,0.39565 -0.7511,0.39534 -0.5433,-1.14775 z m -4.2798,-48.43843 c 0.1703,-0.17026 -0.029,-1.5185 -0.4897,-3.31318 -0.9289,-3.61878 -0.9713,-5.14541 -0.1904,-6.8645 2.3856,-5.25177 9.9763,-4.52658 11.5126,1.09987 0.1719,0.62958 0.4633,1.75451 0.6475,2.49983 l 0.335,1.35515 0.9746,-0.71761 c 1.1119,-0.81872 3.5472,-3.94834 4.4511,-5.72025 1.6488,-3.23191 2.0452,-7.7258 0.841,-9.53383 -1.5404,-2.31264 -4.0238,-2.83192 -13.556,-2.83451 -7.6771,-0.002 -11.3873,-0.3346 -15.8963,-1.42467 -1.7187,-0.41551 -3.2164,-0.69889 -3.3283,-0.62976 -0.1119,0.0691 -0.304,1.01488 -0.427,2.10164 -0.2892,2.5564 -1.1513,4.20419 -2.7547,5.26531 -2.9008,1.91963 -6.7719,1.12533 -8.6465,-1.77417 -0.9201,-1.4231 -0.9439,-1.55635 -0.7726,-4.33712 0.097,-1.5779 0.2696,-3.38927 0.3832,-4.02528 0.2052,-1.14854 0.1983,-1.15735 -1.0242,-1.30148 -4.3716,-0.51546 -6.626,2.21751 -6.629,8.03629 0,5.12923 2.033,9.55787 6.3736,13.86638 3.0703,3.04759 6.4825,5.16821 10.7979,6.71058 4.6326,1.65578 7.2394,2.05752 12.5508,1.93424 2.5081,-0.0582 4.6895,-0.23504 4.8474,-0.39293 z m 39.6129,-17.232 c 5.2268,-3.17514 9.6717,-8.93454 12.772,-16.54946 4.5502,-11.17591 6.6039,-26.02308 6.125,-44.28051 -0.1242,-4.7337 -0.323,-9.39507 -0.4418,-10.35861 l -0.216,-1.75189 -2.072,-0.74374 c -12.8584,-4.61554 -29.1271,-7.16563 -40.8022,-6.39566 -10.9969,0.72524 -20.8271,4.20671 -26.8772,9.51877 l -1.0356,0.90922 -1.2474,-2.44255 c -5.1324,-10.04919 -16.8682,-12.5223 -33.3603,-7.03005 -4.08721,1.36114 -11.75235,4.65116 -11.75235,5.04433 0,0.12341 0.2092,0.93178 0.46492,1.79639 0.84725,2.86488 2.36742,11.0709 2.85995,15.43838 1.57579,13.9734 0.68143,25.88268 -2.86368,38.13297 -0.17,0.58736 0.2859,0.43166 3.41684,-1.16697 11.55344,-5.89904 24.96662,-9.55199 35.07372,-9.55199 6.1365,0 9.9059,0.88294 13.8025,3.23306 l 2.1437,1.29293 1.5908,-0.86582 c 4.6672,-2.54021 10.1219,-2.31715 15.8317,0.64741 7.114,3.69363 14.3435,11.07913 20.9312,21.38271 1.2904,2.01829 2.4349,3.94901 2.5433,4.2905 0.2826,0.89038 0.9312,0.7759 3.1129,-0.54942 z m -26.1633,-42.83715 c -5.5669,-2.78184 -6.4048,-10.35053 -1.601,-14.4624 4.2249,-3.61636 10.9778,-2.2343 13.4644,2.75562 1.6463,3.30358 0.8686,7.85387 -1.769,10.35153 -2.6885,2.54574 -6.6481,3.07736 -10.0944,1.35525 z m -43.9521,-0.82322 c -3.2829,-1.16325 -5.6021,-4.58272 -5.6021,-8.25978 0,-3.33417 1.5475,-5.97203 4.5424,-7.74288 1.2525,-0.74059 1.7782,-0.84769 4.144,-0.84435 3.1653,0.004 4.5879,0.59279 6.4695,2.67552 1.679,1.85838 2.2299,3.32072 2.2331,5.92738 0,1.77969 -0.166,2.5629 -0.8308,3.86915 -2.0329,3.99482 -6.7327,5.8715 -10.9561,4.37496 z m 32.7546,-59.49357 c 1.7442,-1.17538 2.4307,-2.51902 3.0266,-5.92356 l 0.5446,-3.11191 1.9538,-0.70071 c 3.9596,-1.42005 8.2115,-4.99243 9.8919,-8.31107 3.2963,-6.50957 1.9563,-13.53641 -3.6523,-19.15298 -3.3236,-3.32825 -6.7183,-5.22454 -11.8281,-6.60723 -2.83,-0.76577 -9.5447,-0.75286 -12.3934,0.0239 -7.562,2.06184 -12.974,7.48354 -14.081,14.10633 -0.7957,4.76062 1.1443,10.07764 5.1645,14.15405 l 2.1917,2.22234 -0.4628,2.41877 c -0.6004,3.13783 -0.5845,4.71933 0.061,6.0795 0.5441,1.14649 2.6397,2.82604 3.0137,2.41532 0.1177,-0.12921 0.5219,-1.66939 0.8982,-3.42261 0.6859,-3.19465 1.1442,-3.98459 2.3121,-3.98459 0.3131,0 0.7816,0.32403 1.0411,0.72006 0.424,0.64716 0.3925,1.07094 -0.3115,4.18536 -0.4307,1.90591 -0.7832,3.57862 -0.7832,3.71713 0,0.24079 3.9444,1.25924 4.8769,1.25924 0.3383,0 0.5459,-0.95498 0.8492,-3.9049 0.4087,-3.97584 0.8067,-5.02059 1.9128,-5.02059 0.29,0 0.7944,0.19539 1.121,0.43419 0.561,0.4102 0.5722,0.64367 0.2021,4.22367 -0.2154,2.08422 -0.4648,4.04051 -0.5543,4.34732 -0.143,0.49024 0.085,0.55785 1.8836,0.55785 1.6007,0 2.2807,-0.15788 3.1219,-0.72482 z m -0.1253,-16.79643 c -3.5848,-1.14131 -5.3354,-5.28375 -3.6451,-8.62558 1.6199,-3.2028 5.4236,-4.31184 8.5349,-2.4885 3.8272,2.24287 3.9006,8.12589 0.1291,10.33616 -1.471,0.86206 -3.6795,1.20437 -5.0189,0.77792 z m -15.7843,-2.27079 c -3.4685,-1.76204 -4.3234,-6.64655 -1.6888,-9.64819 1.989,-2.26609 6.3217,-2.38794 8.7616,-0.24641 1.798,1.57818 2.3027,4.85607 1.1229,7.2933 -1.3979,2.88755 -5.235,4.10544 -8.1957,2.6013 z"
       id="path2996"
       inkscape:connector-curvature="0"
       sodipodi:nodetypes="ccccssccsccsscssssscssssssssscsssccsssscccccscccccssccscccsccccccccssscsssscsscccsscscssscssscsssscssssccccscccscsscsscssccsccsscscccsccccssccsccc" />
  </g>
</svg>
