<?xml version="1.0" encoding="UTF-8" standalone="no"?>
<!-- Created with Inkscape (http://www.inkscape.org/) -->

<svg
   xmlns:dc="http://purl.org/dc/elements/1.1/"
   xmlns:cc="http://creativecommons.org/ns#"
   xmlns:rdf="http://www.w3.org/1999/02/22-rdf-syntax-ns#"
   xmlns:svg="http://www.w3.org/2000/svg"
   xmlns="http://www.w3.org/2000/svg"
   xmlns:inkscape="http://www.inkscape.org/namespaces/inkscape"
   version="1.1"
   width="148.875"
   height="108.8125"
   id="svg2">
  <defs
     id="defs4" />
  <metadata
     id="metadata7">
    <rdf:RDF>
      <cc:Work
         rdf:about="">
        <dc:format>image/svg+xml</dc:format>
        <dc:type
           rdf:resource="http://purl.org/dc/dcmitype/StillImage" />
        <dc:title />
      </cc:Work>
    </rdf:RDF>
  </metadata>
  <g
     transform="translate(-21.974874,-562.71075)"
     id="layer1">
    <g
       transform="translate(-7.071068,10.735283)"
       id="forever-if">
      <path
         d="m 29.545942,556.38171 0,99.96875 c 0,2.17643 1.76107,3.9375 3.9375,3.9375 0,0 93.333328,0 139.999998,0 2.17643,0 3.9375,-1.76107 3.9375,-3.9375 0,-4.65625 0,-9.3125 0,-13.96875 0,-2.17643 -1.76107,-3.9531 -3.9375,-3.9531 l -126.218748,0 c -2.51831,0 -4.5625,-2.05979 -4.5625,-4.5781 l 0,-55.0625 c 0,-2.51831 2.0442,-4.53825 4.5625,-4.53125 l 6.27941,0.0312 3.25,3.09375 10.5,0 3.25,-3.09375 102.939338,0 c 2.17643,0 3.9375,-1.76107 3.9375,-3.9375 l 0,-13.96875 c 0,-2.17643 -1.76107,-3.90625 -3.9375,-3.90625 l -115.999998,0 -3.25,3.09375 -10.5,0 -3.25,-3.09375 -7,0 c -1.958481,0 -3.9375,2.38473 -3.9375,3.90625 z"
         inkscape:connector-curvature="0"
         id="path6501"
         style="fill:#e6aa19;fill-opacity:1;stroke:#c69215;stroke-width:1;stroke-linecap:round;stroke-linejoin:round;stroke-miterlimit:4;stroke-opacity:1;stroke-dashoffset:0" />
      <text
         x="32.656536"
         y="568.43848"
         id="text6503"
         xml:space="preserve"
         style="font-size:14px;font-style:normal;font-variant:normal;font-weight:500;font-stretch:normal;text-align:start;line-height:125%;letter-spacing:0px;word-spacing:0px;writing-mode:lr-tb;text-anchor:start;fill:#ffffff;fill-opacity:1;stroke:none;font-family:Ubuntu;-inkscape-font-specification:Ubuntu Medium"><tspan
           x="32.656536"
           y="568.43848"
           id="tspan6505">forever if</tspan></text>
      <path
         d="m 168.79594,642.31921 -2,3.4375 1,0 0,3 c 0,0.88231 -0.35242,1.58629 -1.09375,2.15625 -0.74133,0.56996 -1.90534,0.96875 -3.40625,0.96875 l -29.5,0 0,2 29.5,0 c 1.8502,0 3.45411,-0.50603 4.625,-1.40625 1.17089,-0.90022 1.875,-2.23178 1.875,-3.71875 l 0,-3 1,0 -2,-3.4375 z"
         inkscape:connector-curvature="0"
         id="path6509"
         style="font-size:medium;font-style:normal;font-variant:normal;font-weight:normal;font-stretch:normal;text-indent:0;text-align:start;text-decoration:none;line-height:normal;letter-spacing:normal;word-spacing:normal;text-transform:none;direction:ltr;block-progression:tb;writing-mode:lr-tb;text-anchor:start;baseline-shift:baseline;color:#000000;fill:#ffffff;fill-opacity:1;stroke:none;stroke-width:2;marker:none;visibility:visible;display:inline;overflow:visible;enable-background:accumulate;font-family:Sans;-inkscape-font-specification:Sans" />
      <path
         d="m 106.23238,555.44287 21.15432,0 8,8.13173 -8,8.13172 -21.15432,0 -7.999997,-8.13172 z"
         inkscape:connector-curvature="0"
         id="rect6527"
         style="fill:#c59631;fill-opacity:1;stroke:#a57519;stroke-width:1;stroke-linecap:round;stroke-linejoin:round;stroke-miterlimit:4;stroke-opacity:1;stroke-dashoffset:0" />
    </g>
  </g>
</svg>
