<?xml version="1.0" encoding="UTF-8" standalone="no"?>
<!-- Created with Inkscape (http://www.inkscape.org/) -->

<svg
   xmlns:dc="http://purl.org/dc/elements/1.1/"
   xmlns:cc="http://creativecommons.org/ns#"
   xmlns:rdf="http://www.w3.org/1999/02/22-rdf-syntax-ns#"
   xmlns:svg="http://www.w3.org/2000/svg"
   xmlns="http://www.w3.org/2000/svg"
   xmlns:inkscape="http://www.inkscape.org/namespaces/inkscape"
   version="1.1"
   width="148.875"
   height="111.9063"
   id="svg2">
  <defs
     id="defs4" />
  <metadata
     id="metadata7">
    <rdf:RDF>
      <cc:Work
         rdf:about="">
        <dc:format>image/svg+xml</dc:format>
        <dc:type
           rdf:resource="http://purl.org/dc/dcmitype/StillImage" />
        <dc:title />
      </cc:Work>
    </rdf:RDF>
  </metadata>
  <g
     transform="translate(-21.974874,-805.03551)"
     id="layer1">
    <g
       transform="translate(-16.368876,5.754307)"
       id="if-else">
      <path
         d="m 42.78125,799.78125 c -1.958481,0 -3.9375,2.38473 -3.9375,3.90625 l 0,99.96875 c 0,2.17643 1.76107,3.9375 3.9375,3.9375 l 7,0 3.25,3.09375 10.5,0 3.25,-3.09375 116,0 c 2.17643,0 3.9375,-1.76107 3.9375,-3.9375 l 0,-13.96875 c 0,-2.17643 -1.76107,-3.96875 -3.9375,-3.96875 l -126.21875,0 c -2.51831,0 -4.5625,-2.04419 -4.5625,-4.5625 l 0,-17.78125 10.84375,0 3.25,3.125 10.5,0 3.25,-3.125 102.9375,0 c 2.17643,0 3.9375,-1.76107 3.9375,-3.9375 l 0,-13.9375 c 0,-2.17643 -1.76107,-3.9375 -3.9375,-3.9375 l -130.78125,0 0,-15.46875 c 0,-2.51831 2.0442,-4.53825 4.5625,-4.53125 l 6.28125,0.0312 3.25,3.09375 10.5,0 3.25,-3.09375 102.9375,0 c 2.17643,0 3.9375,-1.76107 3.9375,-3.9375 l 0,-13.96875 c 0,-2.17643 -1.76107,-3.90625 -3.9375,-3.90625 l -116,0 -3.25,3.09375 -10.5,0 -3.25,-3.09375 z"
         inkscape:connector-curvature="0"
         id="path6674"
         style="fill:#e6aa19;fill-opacity:1;stroke:#c69215;stroke-width:1;stroke-linecap:round;stroke-linejoin:round;stroke-miterlimit:4;stroke-opacity:1;stroke-dashoffset:0" />
      <text
         x="41.964149"
         y="815.74402"
         id="text6690"
         xml:space="preserve"
         style="font-size:14px;font-style:normal;font-variant:normal;font-weight:500;font-stretch:normal;text-align:start;line-height:125%;letter-spacing:0px;word-spacing:0px;writing-mode:lr-tb;text-anchor:start;fill:#ffffff;fill-opacity:1;stroke:none;font-family:Ubuntu;-inkscape-font-specification:Ubuntu Medium"><tspan
           x="41.964149"
           y="815.74402"
           id="tspan6692">if</tspan></text>
      <path
         d="m 77.232379,802.44287 21.15432,0 8.000001,8.13173 -8.000001,8.13172 -21.15432,0 -8,-8.13172 z"
         inkscape:connector-curvature="0"
         id="path6694"
         style="fill:#c59631;fill-opacity:1;stroke:#a57519;stroke-width:1;stroke-linecap:round;stroke-linejoin:round;stroke-miterlimit:4;stroke-opacity:1;stroke-dashoffset:0" />
      <text
         x="42.174149"
         y="857.20087"
         id="text6751"
         xml:space="preserve"
         style="font-size:14px;font-style:normal;font-variant:normal;font-weight:500;font-stretch:normal;text-align:start;line-height:125%;letter-spacing:0px;word-spacing:0px;writing-mode:lr-tb;text-anchor:start;fill:#ffffff;fill-opacity:1;stroke:none;font-family:Ubuntu;-inkscape-font-specification:Ubuntu Medium"><tspan
           x="42.174149"
           y="857.20087"
           id="tspan6753">else</tspan></text>
    </g>
  </g>
</svg>
