<?xml version="1.0" encoding="UTF-8" standalone="no"?>
<!-- Created with Inkscape (http://www.inkscape.org/) -->

<svg
   xmlns:dc="http://purl.org/dc/elements/1.1/"
   xmlns:cc="http://creativecommons.org/ns#"
   xmlns:rdf="http://www.w3.org/1999/02/22-rdf-syntax-ns#"
   xmlns:svg="http://www.w3.org/2000/svg"
   xmlns="http://www.w3.org/2000/svg"
   xmlns:inkscape="http://www.inkscape.org/namespaces/inkscape"
   version="1.1"
   width="148.875"
   height="111.90582"
   id="svg2">
  <defs
     id="defs4" />
  <metadata
     id="metadata7">
    <rdf:RDF>
      <cc:Work
         rdf:about="">
        <dc:format>image/svg+xml</dc:format>
        <dc:type
           rdf:resource="http://purl.org/dc/dcmitype/StillImage" />
        <dc:title />
      </cc:Work>
    </rdf:RDF>
  </metadata>
  <g
     transform="translate(-21.974874,-682.32647)"
     id="layer1">
    <g
       transform="translate(-17.37868,11.045489)"
       id="if">
      <path
         d="m 39.853554,675.68723 0,99.96875 c 0,2.17643 1.76107,3.9375 3.9375,3.9375 2.700521,0 6.999946,0 6.999946,0 l 3.25,3.09332 10.5,0 3.25,-3.09332 c 0,0 84.16672,0 116.00005,0 2.17643,0 3.9375,-1.76107 3.9375,-3.9375 0,-4.65625 0,-9.3125 0,-13.96875 0,-2.17643 -1.76107,-3.9531 -3.9375,-3.9531 l -126.218746,0 c -2.51831,0 -4.5625,-2.05979 -4.5625,-4.5781 l 0,-55.0625 c 0,-2.51831 2.0442,-4.53825 4.5625,-4.53125 l 6.27941,0.0312 3.25,3.09375 10.5,0 3.25,-3.09375 102.939336,0 c 2.17643,0 3.9375,-1.76107 3.9375,-3.9375 l 0,-13.96875 c 0,-2.17643 -1.76107,-3.90625 -3.9375,-3.90625 l -115.999996,0 -3.25,3.09375 -10.5,0 -3.25,-3.09375 -7,0 c -1.958481,0 -3.9375,2.38473 -3.9375,3.90625 z"
         inkscape:connector-curvature="0"
         id="path6644"
         style="fill:#e6aa19;fill-opacity:1;stroke:#c69215;stroke-width:1;stroke-linecap:round;stroke-linejoin:round;stroke-miterlimit:4;stroke-opacity:1;stroke-dashoffset:0" />
      <text
         x="42.964149"
         y="687.74402"
         id="text6646"
         xml:space="preserve"
         style="font-size:14px;font-style:normal;font-variant:normal;font-weight:500;font-stretch:normal;text-align:start;line-height:125%;letter-spacing:0px;word-spacing:0px;writing-mode:lr-tb;text-anchor:start;fill:#ffffff;fill-opacity:1;stroke:none;font-family:Ubuntu;-inkscape-font-specification:Ubuntu Medium"><tspan
           x="42.964149"
           y="687.74402"
           id="tspan6648">if</tspan></text>
      <path
         d="m 78.23238,674.44287 21.15432,0 8,8.13173 -8,8.13172 -21.15432,0 -8,-8.13172 z"
         inkscape:connector-curvature="0"
         id="path6654"
         style="fill:#c59631;fill-opacity:1;stroke:#a57519;stroke-width:1;stroke-linecap:round;stroke-linejoin:round;stroke-miterlimit:4;stroke-opacity:1;stroke-dashoffset:0" />
    </g>
  </g>
</svg>
