<?xml version="1.0" encoding="UTF-8" standalone="no"?>
<!-- Created with Inkscape (http://www.inkscape.org/) -->

<svg
   xmlns:dc="http://purl.org/dc/elements/1.1/"
   xmlns:cc="http://creativecommons.org/ns#"
   xmlns:rdf="http://www.w3.org/1999/02/22-rdf-syntax-ns#"
   xmlns:svg="http://www.w3.org/2000/svg"
   xmlns="http://www.w3.org/2000/svg"
   xmlns:inkscape="http://www.inkscape.org/namespaces/inkscape"
   version="1.1"
   width="148.85715"
   height="37.464703"
   id="svg2">
  <defs
     id="defs4" />
  <metadata
     id="metadata7">
    <rdf:RDF>
      <cc:Work
         rdf:about="">
        <dc:format>image/svg+xml</dc:format>
        <dc:type
           rdf:resource="http://purl.org/dc/dcmitype/StillImage" />
        <dc:title />
      </cc:Work>
    </rdf:RDF>
  </metadata>
  <g
     transform="translate(-21.97487,-16.929875)"
     id="layer1">
    <g
       transform="translate(-179.91642,-236.88081)"
       id="when-flag-clicked">
      <path
         d="m 206.31986,265.84681 c 50.67405,-25.95628 86.66667,0 120,0 13.33333,0 20,0 20,0 2.17643,0 3.92857,1.75214 3.92857,3.92857 l 0,13.9643 c 0,2.17643 -1.75214,3.92857 -3.92857,3.92857 -23.33333,0 -116,0 -116,0 l -3.25,3.10714 c -2.16667,0 -8.33333,0 -10.5,0 l -3.25,-3.10714 -7,0 c -2.17643,0 -3.92857,-1.75214 -3.92857,-3.92857 l 0,-13.9643 c 0,-2.17643 1.72839,-2.80159 3.92857,-3.92857 z"
         inkscape:connector-curvature="0"
         id="path6373"
         style="fill:#e6aa19;fill-opacity:1;stroke:#c69215;stroke-width:1;stroke-linecap:round;stroke-linejoin:round;stroke-miterlimit:4;stroke-opacity:1;stroke-dashoffset:0" />
      <text
         x="208.96046"
         y="280.55511"
         id="text6385"
         xml:space="preserve"
         style="font-size:14px;font-style:normal;font-variant:normal;font-weight:500;font-stretch:normal;text-align:start;line-height:125%;letter-spacing:0px;word-spacing:0px;writing-mode:lr-tb;text-anchor:start;fill:#ffffff;fill-opacity:1;stroke:none;font-family:Ubuntu;-inkscape-font-specification:Ubuntu Medium"><tspan
           x="208.96046"
           y="280.55511"
           id="tspan6387">when          clicked</tspan></text>
      <g
         transform="matrix(0.94154781,0.33687939,-0.33687939,0.94154781,96.991417,-35.159529)"
         id="flag">
        <path
           d="m 250.7677,225.33583 c 0,0 3.10074,0 4.65111,0 1.55037,0 3.10074,2 4.65111,2 1.55037,0 5.10074,-2 6.65111,-2 1.55037,0 2.65111,2 2.65111,2 l 0,13.77817 c 0,0 -1.10074,-2 -2.65111,-2 -1.55037,0 -5.10074,2 -6.65111,2 -1.55037,0 -3.10074,-2 -4.65111,-2 -1.55037,0 -4.65111,0 -4.65111,0 z"
           inkscape:connector-curvature="0"
           id="rect6389"
           style="fill:#00ba00;fill-opacity:1;stroke:#424542;stroke-opacity:1" />
        <path
           d="m 250.7677,225.33583 0,25.45584"
           inkscape:connector-curvature="0"
           id="path6392"
           style="fill:none;stroke:#424542;stroke-width:1px;stroke-linecap:butt;stroke-linejoin:miter;stroke-opacity:1" />
      </g>
    </g>
  </g>
</svg>
