<?xml version="1.0" encoding="UTF-8" standalone="no"?>
<!-- Created with Inkscape (http://www.inkscape.org/) -->

<svg
   xmlns:dc="http://purl.org/dc/elements/1.1/"
   xmlns:cc="http://creativecommons.org/ns#"
   xmlns:rdf="http://www.w3.org/1999/02/22-rdf-syntax-ns#"
   xmlns:svg="http://www.w3.org/2000/svg"
   xmlns="http://www.w3.org/2000/svg"
   xmlns:inkscape="http://www.inkscape.org/namespaces/inkscape"
   version="1.1"
   width="152.85715"
   height="37.464703"
   id="svg2">
  <defs
     id="defs4" />
  <metadata
     id="metadata7">
    <rdf:RDF>
      <cc:Work
         rdf:about="">
        <dc:format>image/svg+xml</dc:format>
        <dc:type
           rdf:resource="http://purl.org/dc/dcmitype/StillImage" />
        <dc:title />
      </cc:Work>
    </rdf:RDF>
  </metadata>
  <g
     transform="translate(-21.974874,-113.46571)"
     id="layer1">
    <g
       transform="translate(-5.261049,6.0261186)"
       id="when-sprite-clicked">
      <path
         d="m 31.664493,119.47571 c 50.67405,-25.95628 86.666667,0 119.999997,0 13.33333,0 24,0 24,0 2.17643,0 3.92857,1.75214 3.92857,3.92857 l 0,13.9643 c 0,2.17643 -1.75214,3.92857 -3.92857,3.92857 -23.33333,0 -119.999997,0 -119.999997,0 l -3.25,3.10714 c -2.16667,0 -8.33333,0 -10.5,0 l -3.25,-3.10714 -7,0 c -2.17643,0 -3.92857,-1.75214 -3.92857,-3.92857 l 0,-13.9643 c 0,-2.17643 1.72839,-2.80159 3.92857,-3.92857 z"
         inkscape:connector-curvature="0"
         id="path6456"
         style="fill:#e6aa19;fill-opacity:1;stroke:#c69215;stroke-width:1;stroke-linecap:round;stroke-linejoin:round;stroke-miterlimit:4;stroke-opacity:1;stroke-dashoffset:0" />
      <text
         x="34.305099"
         y="134.18401"
         id="text6458"
         xml:space="preserve"
         style="font-size:14px;font-style:normal;font-variant:normal;font-weight:500;font-stretch:normal;text-align:start;line-height:125%;letter-spacing:0px;word-spacing:0px;writing-mode:lr-tb;text-anchor:start;fill:#ffffff;fill-opacity:1;stroke:none;font-family:Ubuntu;-inkscape-font-specification:Ubuntu Medium"><tspan
           x="34.305099"
           y="134.18401"
           id="tspan6460">when Sprite1 clicked</tspan></text>
    </g>
  </g>
</svg>
