<?xml version="1.0" encoding="UTF-8" standalone="no"?>
<!-- Created with Inkscape (http://www.inkscape.org/) -->

<svg
   xmlns:dc="http://purl.org/dc/elements/1.1/"
   xmlns:cc="http://creativecommons.org/ns#"
   xmlns:rdf="http://www.w3.org/1999/02/22-rdf-syntax-ns#"
   xmlns:svg="http://www.w3.org/2000/svg"
   xmlns="http://www.w3.org/2000/svg"
   xmlns:sodipodi="http://sodipodi.sourceforge.net/DTD/sodipodi-0.dtd"
   xmlns:inkscape="http://www.inkscape.org/namespaces/inkscape"
   width="125"
   height="125"
   id="svg2"
   version="1.1"
   inkscape:version="0.48.4 r9939"
   sodipodi:docname="first_person_icon.svg">
  <defs
     id="defs4" />
  <sodipodi:namedview
     id="base"
     pagecolor="#ffffff"
     bordercolor="#666666"
     borderopacity="1.0"
     inkscape:pageopacity="0.0"
     inkscape:pageshadow="2"
     inkscape:zoom="1.979899"
     inkscape:cx="134.57018"
     inkscape:cy="-12.685179"
     inkscape:document-units="px"
     inkscape:current-layer="layer1"
     showgrid="false"
     fit-margin-top="0"
     fit-margin-left="0"
     fit-margin-right="0"
     fit-margin-bottom="0"
     inkscape:window-width="1920"
     inkscape:window-height="1056"
     inkscape:window-x="0"
     inkscape:window-y="24"
     inkscape:window-maximized="1"
     units="pt" />
  <metadata
     id="metadata7">
    <rdf:RDF>
      <cc:Work
         rdf:about="">
        <dc:format>image/svg+xml</dc:format>
        <dc:type
           rdf:resource="http://purl.org/dc/dcmitype/StillImage" />
      </cc:Work>
    </rdf:RDF>
  </metadata>
  <g
     inkscape:label="Layer 1"
     inkscape:groupmode="layer"
     id="layer1"
     transform="translate(-378.35712,-267.82647)">
    <path
       style="fill:#000000"
       d="m 440.85712,390.97496 -31.76825,0 0,-18.90341 0,-18.90344 7.0888,-7.08877 7.08877,-7.0888 17.59068,0 17.59069,0 7.08877,7.0888 7.0888,7.08877 0,18.90344 0,18.90341 -31.76826,0 z m -37.5443,-46.20837 -11.55209,0 0,-37.54431 0,-37.5443 49.09639,0 49.0964,0 0,37.5443 0,37.54431 -11.55209,0 -11.5521,0 0,-2.88802 0,-2.88803 8.66406,0 8.66407,0 0,-31.76826 0,-31.76826 -43.32035,0 -43.32034,0 0,31.76826 0,31.76826 8.66407,0 8.66407,0 0,2.88803 0,2.88802 -11.5521,0 z m 37.5443,-11.5521 -31.76825,0 0,-23.10419 0,-23.10419 31.76825,0 31.76826,0 0,23.10419 0,23.10419 -31.76826,0 z"
       id="path3017"
       inkscape:connector-curvature="0" />
  </g>
</svg>
