<?xml version="1.0" encoding="UTF-8" standalone="no"?>
<!-- Created with Inkscape (http://www.inkscape.org/) -->

<svg
   xmlns:dc="http://purl.org/dc/elements/1.1/"
   xmlns:cc="http://creativecommons.org/ns#"
   xmlns:rdf="http://www.w3.org/1999/02/22-rdf-syntax-ns#"
   xmlns:svg="http://www.w3.org/2000/svg"
   xmlns="http://www.w3.org/2000/svg"
   xmlns:inkscape="http://www.inkscape.org/namespaces/inkscape"
   version="1.1"
   width="118.5"
   height="21.5"
   id="svg2">
  <defs
     id="defs4" />
  <metadata
     id="metadata7">
    <rdf:RDF>
      <cc:Work
         rdf:about="">
        <dc:format>image/svg+xml</dc:format>
        <dc:type
           rdf:resource="http://purl.org/dc/dcmitype/StillImage" />
        <dc:title />
      </cc:Work>
    </rdf:RDF>
  </metadata>
  <g
     transform="translate(-544.64066,-549.14368)"
     id="layer1">
    <g
       transform="translate(-12.37437,7.5958662)"
       id="function-of">
      <path
         d="m 561.76503,542.04781 109,0 c 2.3545,0 4.25,5.345 4.25,9.5 l 0,1.5 c 0,4.155 -1.8955,9.5 -4.25,9.5 l -109,0 c -2.3545,0 -4.25,-5.345 -4.25,-9.5 l 0,-1.5 c 0,-4.155 1.8955,-9.5 4.25,-9.5 z"
         inkscape:connector-curvature="0"
         id="path8126"
         style="fill:#63c210;fill-opacity:1;stroke:#4a9a08;stroke-linejoin:round;stroke-opacity:1" />
      <text
         x="608.41559"
         y="556.30182"
         id="text8128"
         xml:space="preserve"
         style="font-size:14px;font-style:normal;font-variant:normal;font-weight:500;font-stretch:normal;text-align:start;line-height:125%;letter-spacing:0px;word-spacing:0px;writing-mode:lr-tb;text-anchor:start;fill:#ffffff;fill-opacity:1;stroke:none;font-family:Ubuntu;-inkscape-font-specification:Ubuntu Medium"><tspan
           x="608.41559"
           y="556.30182"
           id="tspan8130">of</tspan></text>
      <path
         d="m 631.36637,544.04781 33,0 c 2.3545,0 4.25,3.345 4.25,7.5 l 0,1.5 c 0,4.155 -1.8955,7.5 -4.25,7.5 l -33,0 c -2.3545,0 -4.25,-3.345 -4.25,-7.5 l 0,-1.5 c 0,-4.155 1.8955,-7.5 4.25,-7.5 z"
         inkscape:connector-curvature="0"
         id="path8132"
         style="fill:#ffffff;fill-opacity:1;stroke:#5f5f5f;stroke-linejoin:round;stroke-opacity:1" />
      <text
         x="631.83771"
         y="556.46179"
         id="text8134"
         xml:space="preserve"
         style="font-size:12px;font-style:normal;font-variant:normal;font-weight:normal;font-stretch:normal;text-align:start;line-height:125%;letter-spacing:0px;word-spacing:0px;writing-mode:lr-tb;text-anchor:start;fill:#000000;fill-opacity:1;stroke:none;font-family:Ubuntu;-inkscape-font-specification:Ubuntu"><tspan
           x="631.83771"
           y="556.46179"
           id="tspan8136">world</tspan></text>
      <path
         d="m 564.63096,545.36316 40.96321,0 0,13.86929 -40.96321,0 z"
         inkscape:connector-curvature="0"
         id="path7336-5"
         style="fill:#63a629;fill-opacity:1;stroke:#425931;stroke-width:1;stroke-linecap:round;stroke-linejoin:round;stroke-miterlimit:4;stroke-opacity:1;stroke-dashoffset:0" />
      <path
         d="m 598.7874,556.23531 -4.54663,-7.875 9.09326,0 z"
         inkscape:connector-curvature="0"
         id="path7338-9"
         style="fill:#424142;fill-opacity:1;stroke:none" />
      <text
         x="567.91467"
         y="555.2738"
         id="text7353-0"
         xml:space="preserve"
         style="font-size:12px;font-style:normal;font-variant:normal;font-weight:normal;font-stretch:normal;text-align:start;line-height:125%;letter-spacing:0px;word-spacing:0px;writing-mode:lr-tb;text-anchor:start;fill:#ffffff;fill-opacity:1;stroke:none;font-family:Ubuntu;-inkscape-font-specification:Ubuntu"><tspan
           x="567.91467"
           y="555.2738"
           id="tspan7355-8">sqrt</tspan></text>
    </g>
  </g>
</svg>
