<?xml version="1.0" encoding="UTF-8" standalone="no"?>
<!-- Created with Inkscape (http://www.inkscape.org/) -->

<svg
   xmlns:dc="http://purl.org/dc/elements/1.1/"
   xmlns:cc="http://creativecommons.org/ns#"
   xmlns:rdf="http://www.w3.org/1999/02/22-rdf-syntax-ns#"
   xmlns:svg="http://www.w3.org/2000/svg"
   xmlns="http://www.w3.org/2000/svg"
   xmlns:inkscape="http://www.inkscape.org/namespaces/inkscape"
   version="1.1"
   width="118.5"
   height="21.5"
   id="svg2">
  <defs
     id="defs4" />
  <metadata
     id="metadata7">
    <rdf:RDF>
      <cc:Work
         rdf:about="">
        <dc:format>image/svg+xml</dc:format>
        <dc:type
           rdf:resource="http://purl.org/dc/dcmitype/StillImage" />
        <dc:title />
      </cc:Work>
    </rdf:RDF>
  </metadata>
  <g
     transform="translate(-544.64066,-449.74012)"
     id="layer1">
    <g
       transform="translate(-7.42462,17.793852)"
       id="length-of">
      <path
         d="m 556.81528,432.44626 109,0 c 2.3545,0 4.25,5.345 4.25,9.5 l 0,1.5 c 0,4.155 -1.8955,9.5 -4.25,9.5 l -109,0 c -2.3545,0 -4.25,-5.345 -4.25,-9.5 l 0,-1.5 c 0,-4.155 1.8955,-9.5 4.25,-9.5 z"
         inkscape:connector-curvature="0"
         id="path8028"
         style="fill:#63c210;fill-opacity:1;stroke:#4a9a08;stroke-linejoin:round;stroke-opacity:1" />
      <text
         x="557.46582"
         y="446.70029"
         id="text8030"
         xml:space="preserve"
         style="font-size:14px;font-style:normal;font-variant:normal;font-weight:500;font-stretch:normal;text-align:start;line-height:125%;letter-spacing:0px;word-spacing:0px;writing-mode:lr-tb;text-anchor:start;fill:#ffffff;fill-opacity:1;stroke:none;font-family:Ubuntu;-inkscape-font-specification:Ubuntu Medium"><tspan
           x="557.46582"
           y="446.70029"
           id="tspan8032">length of</tspan></text>
      <path
         d="m 626.41662,434.44626 33,0 c 2.3545,0 4.25,3.345 4.25,7.5 l 0,1.5 c 0,4.155 -1.8955,7.5 -4.25,7.5 l -33,0 c -2.3545,0 -4.25,-3.345 -4.25,-7.5 l 0,-1.5 c 0,-4.155 1.8955,-7.5 4.25,-7.5 z"
         inkscape:connector-curvature="0"
         id="path8036"
         style="fill:#ffffff;fill-opacity:1;stroke:#5f5f5f;stroke-linejoin:round;stroke-opacity:1" />
      <text
         x="626.88794"
         y="446.86026"
         id="text8042"
         xml:space="preserve"
         style="font-size:12px;font-style:normal;font-variant:normal;font-weight:normal;font-stretch:normal;text-align:start;line-height:125%;letter-spacing:0px;word-spacing:0px;writing-mode:lr-tb;text-anchor:start;fill:#000000;fill-opacity:1;stroke:none;font-family:Ubuntu;-inkscape-font-specification:Ubuntu"><tspan
           x="626.88794"
           y="446.86026"
           id="tspan8044">world</tspan></text>
    </g>
  </g>
</svg>
