<?xml version="1.0" encoding="UTF-8" standalone="no"?>
<!-- Created with Inkscape (http://www.inkscape.org/) -->

<svg
   xmlns:dc="http://purl.org/dc/elements/1.1/"
   xmlns:cc="http://creativecommons.org/ns#"
   xmlns:rdf="http://www.w3.org/1999/02/22-rdf-syntax-ns#"
   xmlns:svg="http://www.w3.org/2000/svg"
   xmlns="http://www.w3.org/2000/svg"
   xmlns:inkscape="http://www.inkscape.org/namespaces/inkscape"
   version="1.1"
   width="82.5"
   height="21.5"
   id="svg2">
  <defs
     id="defs4" />
  <metadata
     id="metadata7">
    <rdf:RDF>
      <cc:Work
         rdf:about="">
        <dc:format>image/svg+xml</dc:format>
        <dc:type
           rdf:resource="http://purl.org/dc/dcmitype/StillImage" />
        <dc:title />
      </cc:Work>
    </rdf:RDF>
  </metadata>
  <g
     transform="translate(-544.64066,-516.00916)"
     id="layer1">
    <g
       transform="translate(-12.40685,6.2939447)"
       id="round">
      <path
         d="m 561.79751,510.21521 73,0 c 2.3545,0 4.25,5.345 4.25,9.5 l 0,1.5 c 0,4.155 -1.8955,9.5 -4.25,9.5 l -73,0 c -2.3545,0 -4.25,-5.345 -4.25,-9.5 l 0,-1.5 c 0,-4.155 1.8955,-9.5 4.25,-9.5 z"
         inkscape:connector-curvature="0"
         id="path8089"
         style="fill:#63c210;fill-opacity:1;stroke:#4a9a08;stroke-linejoin:round;stroke-opacity:1" />
      <text
         x="565.58197"
         y="524.46924"
         id="text8091"
         xml:space="preserve"
         style="font-size:14px;font-style:normal;font-variant:normal;font-weight:500;font-stretch:normal;text-align:start;line-height:125%;letter-spacing:0px;word-spacing:0px;writing-mode:lr-tb;text-anchor:start;fill:#ffffff;fill-opacity:1;stroke:none;font-family:Ubuntu;-inkscape-font-specification:Ubuntu Medium"><tspan
           x="565.58197"
           y="524.46924"
           id="tspan8093">round</tspan></text>
      <path
         d="m 615.39879,512.21521 11,0 c 2.3545,0 4.25,3.345 4.25,7.5 l 0,1.5 c 0,4.155 -1.8955,7.5 -4.25,7.5 l -11,0 c -2.3545,0 -4.25,-3.345 -4.25,-7.5 l 0,-1.5 c 0,-4.155 1.8955,-7.5 4.25,-7.5 z"
         inkscape:connector-curvature="0"
         id="path8097"
         style="fill:#ffffff;fill-opacity:1;stroke:#5f5f5f;stroke-linejoin:round;stroke-opacity:1" />
    </g>
  </g>
</svg>
