<?xml version="1.0" encoding="UTF-8" standalone="no"?>
<!-- Created with Inkscape (http://www.inkscape.org/) -->

<svg
   xmlns:dc="http://purl.org/dc/elements/1.1/"
   xmlns:cc="http://creativecommons.org/ns#"
   xmlns:rdf="http://www.w3.org/1999/02/22-rdf-syntax-ns#"
   xmlns:svg="http://www.w3.org/2000/svg"
   xmlns="http://www.w3.org/2000/svg"
   xmlns:inkscape="http://www.inkscape.org/namespaces/inkscape"
   version="1.1"
   width="98.857147"
   height="26.023092"
   id="svg2">
  <defs
     id="defs4" />
  <metadata
     id="metadata7">
    <rdf:RDF>
      <cc:Work
         rdf:about="">
        <dc:format>image/svg+xml</dc:format>
        <dc:type
           rdf:resource="http://purl.org/dc/dcmitype/StillImage" />
        <dc:title />
      </cc:Work>
    </rdf:RDF>
  </metadata>
  <g
     transform="translate(-275.70146,-787.8311)"
     id="layer1">
    <g
       transform="translate(-5.170229,40.212696)"
       id="go-to">
      <path
         d="m 285.30026,748.2129 7,0 3.25,3.10714 c 2.16667,0 8.33333,0 10.5,0 l 3.25,-3.10714 c 0,0 42.66667,0 66.00001,0 2.17643,0 3.92857,1.75214 3.92857,3.92857 l 0,13.96431 c 0,2.17643 -1.75214,3.92857 -3.92857,3.92857 -23.33334,0 -66.00001,0 -66.00001,0 l -3.25,3.10714 c -2.16667,0 -8.33333,0 -10.5,0 l -3.25,-3.10714 -7,0 c -2.17643,0 -3.92857,-1.75214 -3.92857,-3.92857 l 0,-13.96431 c 0,-2.17643 1.83588,-4.52648 3.92857,-3.92857 z"
         inkscape:connector-curvature="0"
         id="path9289"
         style="fill:#4a6dd6;fill-opacity:1;stroke:#314d94;stroke-width:1;stroke-linecap:round;stroke-linejoin:round;stroke-miterlimit:4;stroke-opacity:1;stroke-dashoffset:0" />
      <text
         x="284.94312"
         y="763.45917"
         id="text9291"
         xml:space="preserve"
         style="font-size:14px;font-style:normal;font-variant:normal;font-weight:500;font-stretch:normal;text-align:start;line-height:125%;letter-spacing:0px;word-spacing:0px;writing-mode:lr-tb;text-anchor:start;fill:#ffffff;fill-opacity:1;stroke:none;font-family:Ubuntu;-inkscape-font-specification:Ubuntu Medium"><tspan
           x="284.94312"
           y="763.45917"
           id="tspan9293">go to</tspan></text>
      <path
         d="m 325.91241,752.46424 42.96321,0 0,13.86929 -42.96321,0 z"
         inkscape:connector-curvature="0"
         id="path9295"
         style="fill:#4a61ad;fill-opacity:1;stroke:#314584;stroke-width:1;stroke-linecap:round;stroke-linejoin:round;stroke-miterlimit:4;stroke-opacity:1;stroke-dashoffset:0" />
      <path
         d="m 359.65747,763.33639 -4.54663,-7.875 9.09326,0 z"
         inkscape:connector-curvature="0"
         id="path9297"
         style="fill:#424142;fill-opacity:1;stroke:none" />
    </g>
  </g>
</svg>
