<?xml version="1.0" encoding="UTF-8" standalone="no"?>
<!-- Created with Inkscape (http://www.inkscape.org/) -->

<svg
   xmlns:dc="http://purl.org/dc/elements/1.1/"
   xmlns:cc="http://creativecommons.org/ns#"
   xmlns:rdf="http://www.w3.org/1999/02/22-rdf-syntax-ns#"
   xmlns:svg="http://www.w3.org/2000/svg"
   xmlns="http://www.w3.org/2000/svg"
   xmlns:inkscape="http://www.inkscape.org/namespaces/inkscape"
   version="1.1"
   width="174.85715"
   height="26.023092"
   id="svg2">
  <defs
     id="defs4" />
  <metadata
     id="metadata7">
    <rdf:RDF>
      <cc:Work
         rdf:about="">
        <dc:format>image/svg+xml</dc:format>
        <dc:type
           rdf:resource="http://purl.org/dc/dcmitype/StillImage" />
        <dc:title />
      </cc:Work>
    </rdf:RDF>
  </metadata>
  <g
     transform="translate(-275.70146,-675.76057)"
     id="layer1">
    <g
       transform="translate(-2.670229,38.14217)"
       id="point-in-direction">
      <path
         d="m 282.80026,638.2129 7,0 3.25,3.10714 c 2.16667,0 8.33333,0 10.5,0 l 3.25,-3.10714 c 0,0 118.66667,0 142.00001,0 2.17643,0 3.92857,1.75214 3.92857,3.92857 l 0,13.96431 c 0,2.17643 -1.75214,3.92857 -3.92857,3.92857 -23.33334,0 -142.00001,0 -142.00001,0 l -3.25,3.10714 c -2.16667,0 -8.33333,0 -10.5,0 l -3.25,-3.10714 -7,0 c -2.17643,0 -3.92857,-1.75214 -3.92857,-3.92857 l 0,-13.96431 c 0,-2.17643 1.83588,-4.52648 3.92857,-3.92857 z"
         inkscape:connector-curvature="0"
         id="path9139"
         style="fill:#4a6dd6;fill-opacity:1;stroke:#314d94;stroke-width:1;stroke-linecap:round;stroke-linejoin:round;stroke-miterlimit:4;stroke-opacity:1;stroke-dashoffset:0" />
      <text
         x="282.44312"
         y="653.45917"
         id="text9141"
         xml:space="preserve"
         style="font-size:14px;font-style:normal;font-variant:normal;font-weight:500;font-stretch:normal;text-align:start;line-height:125%;letter-spacing:0px;word-spacing:0px;writing-mode:lr-tb;text-anchor:start;fill:#ffffff;fill-opacity:1;stroke:none;font-family:Ubuntu;-inkscape-font-specification:Ubuntu Medium"><tspan
           x="282.44312"
           y="653.45917"
           id="tspan9143">point in direction</tspan></text>
      <path
         d="m 404.69365,641.05583 35,0 c 2.3545,0 4.25,3.345 4.25,7.5 l 0,1.5 c 0,4.155 -1.8955,7.5 -4.25,7.5 l -35,0 c -2.3545,0 -4.25,-3.345 -4.25,-7.5 l 0,-1.5 c 0,-4.155 1.8955,-7.5 4.25,-7.5 z"
         inkscape:connector-curvature="0"
         id="path9145"
         style="fill:#ffffff;fill-opacity:1;stroke:#5f5f5f;stroke-linejoin:round;stroke-opacity:1" />
      <text
         x="407.16495"
         y="653.46985"
         id="text9147"
         xml:space="preserve"
         style="font-size:12px;font-style:normal;font-variant:normal;font-weight:normal;font-stretch:normal;text-align:start;line-height:125%;letter-spacing:0px;word-spacing:0px;writing-mode:lr-tb;text-anchor:start;fill:#000000;fill-opacity:1;stroke:none;font-family:Ubuntu;-inkscape-font-specification:Ubuntu"><tspan
           x="407.16495"
           y="653.46985"
           id="tspan9149">10</tspan></text>
      <path
         d="m 431,653.24333 -4.54663,-7.875 9.09326,0 z"
         inkscape:connector-curvature="0"
         id="path7480-2"
         style="fill:#424142;fill-opacity:1;stroke:none" />
    </g>
  </g>
</svg>
